<?xml version="1.0" standalone="no"?>
<!DOCTYPE svg PUBLIC "-//W3C//DTD SVG 20010904//EN"
 "http://www.w3.org/TR/2001/REC-SVG-20010904/DTD/svg10.dtd">
<svg version="1.0" xmlns="http://www.w3.org/2000/svg"
 width="1200.000000pt" height="199.000000pt" viewBox="0 0 1200.000000 199.000000"
 preserveAspectRatio="xMidYMid meet">

<g transform="translate(0.000000,199.000000) scale(0.100000,-0.100000)"
fill="#000000" stroke="none">
<path d="M11590 1974 c-259 -94 -283 -441 -38 -563 50 -25 73 -31 128 -31 97
0 155 23 221 89 66 66 89 124 89 221 0 117 -71 225 -179 273 -61 27 -163 32
-221 11z m215 -38 c56 -26 116 -87 141 -143 25 -57 24 -167 -2 -224 -79 -172
-299 -221 -439 -97 -129 114 -129 318 1 424 57 47 104 63 184 63 48 1 78 -5
115 -23z"/>
<path d="M11550 1686 c0 -178 1 -186 20 -186 17 0 19 8 22 78 l3 77 76 0 c94
0 109 -10 109 -75 0 -67 7 -80 43 -80 24 0 28 3 19 12 -7 7 -12 38 -12 70 0
45 -5 63 -20 78 -20 20 -20 20 -1 39 25 25 34 71 22 104 -18 48 -54 61 -173
66 l-108 3 0 -186z m218 122 c7 -7 12 -29 12 -50 0 -49 -18 -58 -114 -58 l-76
0 0 60 0 60 83 0 c51 0 88 -5 95 -12z"/>
<path d="M10 975 l0 -975 975 0 975 0 0 975 0 975 -695 0 -695 0 2 -202 3
-203 265 -5 c210 -5 273 -9 306 -22 186 -73 315 -209 368 -387 20 -69 21 -199
1 -274 -50 -191 -211 -352 -401 -402 -239 -62 -502 54 -616 271 -66 126 -68
139 -68 712 l0 512 -210 0 -210 0 0 -975z m282 363 c4 -451 5 -465 27 -533 81
-248 257 -418 491 -476 77 -19 259 -16 340 5 232 63 408 236 481 476 29 96 31
253 5 350 -47 173 -190 354 -343 433 -119 62 -198 77 -405 77 l-178 0 0 65 0
65 545 0 545 0 0 -825 0 -825 -820 0 -820 0 0 825 0 825 64 0 65 0 3 -462z"/>
<path d="M2360 975 l0 -975 953 2 952 3 56 26 c72 34 123 88 149 156 18 48 20
77 20 293 0 215 -2 245 -20 293 -24 65 -74 125 -135 164 -25 15 -45 34 -45 40
0 7 17 21 38 32 52 27 107 87 134 146 22 47 23 64 26 298 4 283 -3 324 -64
395 -44 52 -90 77 -169 91 -38 7 -256 11 -617 11 l-558 0 0 -235 0 -235 453 0
c339 0 456 -3 465 -12 8 -8 12 -48 12 -115 0 -91 -2 -103 -19 -113 -13 -6
-177 -10 -465 -10 l-446 0 0 -240 0 -240 449 0 c399 0 451 -2 466 -16 13 -13
15 -36 13 -127 -3 -108 -4 -112 -28 -124 -38 -20 -1120 -14 -1143 6 -16 12
-17 76 -17 737 l0 724 -230 0 -230 0 0 -975z"/>
<path d="M4934 1930 c-79 -26 -153 -90 -191 -168 l-28 -57 0 -730 0 -730 28
-56 c32 -66 99 -132 165 -162 47 -22 50 -22 787 -22 707 0 742 1 790 19 65 26
147 103 176 169 l24 52 0 730 c0 727 0 730 -22 777 -30 66 -96 133 -162 165
l-56 28 -725 2 c-696 2 -727 1 -786 -17z m1286 -476 c6 -15 10 -210 10 -483 0
-379 -2 -460 -14 -477 -14 -18 -31 -19 -509 -19 -404 0 -497 3 -510 14 -15 12
-17 59 -17 490 0 358 3 480 12 489 9 9 137 12 515 12 l503 0 10 -26z"/>
<path d="M7154 1939 c-60 -14 -144 -68 -181 -117 -61 -80 -64 -110 -61 -504
l3 -353 29 -53 c37 -66 92 -116 165 -151 l56 -26 634 -3 c445 -2 639 -6 648
-14 10 -8 13 -39 11 -121 l-3 -111 -32 -8 c-18 -5 -256 -7 -529 -6 -477 3
-496 4 -510 22 -8 11 -14 39 -14 63 l0 43 -231 0 -231 0 4 -187 c3 -182 4
-190 31 -245 32 -64 80 -111 146 -142 45 -21 58 -21 801 -24 679 -3 761 -1
818 14 125 33 194 118 213 262 7 49 9 200 7 389 -5 359 -8 375 -92 458 -88 88
-62 85 -792 85 -751 0 -674 -16 -674 143 0 67 4 107 12 115 17 17 1049 17
1066 0 7 -7 12 -31 12 -55 l0 -43 236 0 237 0 -6 168 c-6 185 -13 218 -60 289
-25 37 -48 56 -101 83 l-69 35 -751 2 c-438 1 -768 -3 -792 -8z"/>
<path d="M9400 1936 c-96 -25 -185 -107 -217 -199 -16 -46 -18 -90 -18 -402 0
-336 1 -352 21 -396 26 -56 85 -123 136 -156 83 -52 104 -53 765 -53 713 0
635 17 631 -137 -3 -93 -4 -98 -28 -110 -36 -18 -994 -18 -1030 0 -21 11 -25
21 -28 65 l-3 52 -236 0 -235 0 4 -178 c6 -214 20 -263 96 -334 93 -87 44 -83
917 -83 733 0 772 1 819 19 66 25 128 84 157 149 24 51 24 58 27 415 3 407 0
432 -63 514 -23 31 -54 56 -92 75 l-58 28 -651 5 c-531 4 -654 8 -667 19 -14
11 -17 33 -17 120 0 70 4 111 12 119 9 9 141 12 535 12 506 0 523 -1 533 -19
5 -11 10 -36 10 -55 l0 -36 231 0 231 0 -4 178 c-3 159 -5 182 -26 227 -41 88
-111 144 -210 164 -79 16 -1481 14 -1542 -3z"/>
</g>
</svg>
