<?xml version="1.0" standalone="no"?>
<!DOCTYPE svg PUBLIC "-//W3C//DTD SVG 20010904//EN"
 "http://www.w3.org/TR/2001/REC-SVG-20010904/DTD/svg10.dtd">
<svg version="1.0" xmlns="http://www.w3.org/2000/svg"
 width="480.000000pt" height="480.000000pt" viewBox="0 0 480.000000 480.000000"
 preserveAspectRatio="xMidYMid meet">

<g transform="translate(0.000000,480.000000) scale(0.100000,-0.100000)"
fill="#000000" stroke="none">
<path d="M567 3223 c-4 -3 -7 -372 -7 -820 l0 -813 50 0 50 0 0 820 0 820 -43
0 c-24 0 -47 -3 -50 -7z"/>
<path d="M680 2410 l0 -821 28 3 27 3 0 815 0 815 -27 3 -28 3 0 -821z"/>
<path d="M815 3217 c-3 -6 -4 -170 -3 -362 l3 -350 88 -3 87 -3 0 366 0 365
-85 0 c-60 0 -87 -4 -90 -13z"/>
<path d="M1045 3217 c-3 -6 -4 -170 -3 -362 l3 -350 25 0 25 0 3 363 2 362
-25 0 c-14 0 -28 -6 -30 -13z"/>
<path d="M1150 2865 l0 -365 45 0 45 0 0 365 0 365 -45 0 -45 0 0 -365z"/>
<path d="M1340 2865 l0 -365 25 0 25 0 0 365 0 365 -25 0 -25 0 0 -365z"/>
<path d="M1415 3218 c-3 -7 -4 -171 -3 -363 3 -342 3 -350 23 -350 20 0 20 7
20 360 0 335 -1 360 -18 363 -9 2 -19 -3 -22 -10z"/>
<path d="M1495 3217 c-3 -6 -4 -170 -3 -362 l3 -350 45 0 45 0 3 363 2 362
-45 0 c-27 0 -48 -5 -50 -13z"/>
<path d="M1612 2868 l3 -363 25 0 25 0 0 360 0 360 -28 3 -27 3 2 -363z"/>
<path d="M1745 3217 c-3 -6 -4 -170 -3 -362 l3 -350 85 0 85 0 3 363 2 362
-85 0 c-60 0 -87 -4 -90 -13z"/>
<path d="M1975 3217 c-3 -6 -4 -170 -3 -362 l3 -350 25 0 25 0 3 363 2 362
-25 0 c-14 0 -28 -6 -30 -13z"/>
<path d="M2080 2865 l0 -365 45 0 45 0 0 365 0 365 -45 0 -45 0 0 -365z"/>
<path d="M2270 2865 l0 -365 25 0 25 0 0 365 0 365 -25 0 -25 0 0 -365z"/>
<path d="M2345 3217 c-3 -6 -4 -170 -3 -362 3 -324 4 -350 21 -353 16 -3 17
19 17 362 0 322 -2 366 -15 366 -9 0 -18 -6 -20 -13z"/>
<path d="M2455 3217 c-3 -6 -4 -170 -3 -362 l3 -350 48 -3 47 -3 0 365 0 366
-45 0 c-27 0 -48 -5 -50 -13z"/>
<path d="M2645 3218 c-3 -7 -4 -171 -3 -363 l3 -350 25 0 25 0 0 360 0 360
-23 3 c-12 2 -24 -3 -27 -10z"/>
<path d="M2722 2868 c3 -336 4 -363 21 -366 16 -3 17 19 17 362 0 360 0 366
-20 366 -20 0 -20 -5 -18 -362z"/>
<path d="M2800 2865 l0 -366 48 3 47 3 0 360 0 360 -47 3 -48 3 0 -366z"/>
<path d="M2920 2865 l0 -365 25 0 25 0 0 365 0 365 -25 0 -25 0 0 -365z"/>
<path d="M3050 2865 l0 -365 25 0 25 0 0 365 0 365 -25 0 -25 0 0 -365z"/>
<path d="M3125 3217 c-3 -6 -4 -170 -3 -362 3 -324 4 -350 21 -353 16 -3 17
19 17 362 0 322 -2 366 -15 366 -9 0 -18 -6 -20 -13z"/>
<path d="M3202 2868 l3 -363 45 0 45 0 3 363 2 362 -50 0 -50 0 2 -362z"/>
<path d="M3322 2868 l3 -363 23 -3 22 -3 0 365 0 366 -25 0 -25 0 2 -362z"/>
<path d="M3425 3218 c-3 -7 -4 -171 -3 -363 l3 -350 85 0 85 0 0 360 0 360
-83 3 c-60 2 -84 -1 -87 -10z"/>
<path d="M3652 2868 l3 -363 25 0 25 0 0 360 0 360 -28 3 -27 3 2 -363z"/>
<path d="M3755 3217 c-3 -6 -4 -170 -3 -362 l3 -350 48 -3 47 -3 0 365 0 366
-45 0 c-27 0 -48 -5 -50 -13z"/>
<path d="M3945 3218 c-3 -7 -4 -171 -3 -363 l3 -350 25 0 25 0 0 360 0 360
-23 3 c-12 2 -24 -3 -27 -10z"/>
<path d="M4020 2865 c0 -358 0 -365 20 -365 20 0 20 7 20 365 0 358 0 365 -20
365 -20 0 -20 -7 -20 -365z"/>
<path d="M4130 2410 l0 -820 50 0 50 0 0 820 0 820 -50 0 -50 0 0 -820z"/>
<path d="M822 2038 l3 -413 165 -3 c296 -5 383 24 439 148 45 99 10 217 -79
268 l-49 28 36 28 c41 33 72 96 73 147 0 59 -48 139 -104 174 l-49 30 -219 3
-218 4 2 -414z m418 297 c53 -27 76 -108 47 -164 -26 -52 -67 -64 -216 -65
l-136 -1 -3 123 -3 122 141 0 c106 0 148 -4 170 -15z m21 -351 c70 -41 93
-120 55 -191 -29 -57 -62 -67 -233 -71 l-153 -4 0 139 c0 77 3 143 8 148 4 4
71 5 149 2 114 -4 149 -9 174 -23z"/>
<path d="M2230 2035 l0 -415 50 0 50 0 0 415 0 415 -50 0 -50 0 0 -415z"/>
<path d="M3198 2402 l-48 -27 0 -77 0 -78 -40 0 c-39 0 -40 -1 -40 -34 0 -33
2 -35 38 -38 l37 -3 5 -233 5 -234 33 -29 c32 -29 59 -34 137 -29 41 3 41 3
37 49 -4 40 -5 41 -43 41 -66 0 -70 15 -67 241 l3 194 48 3 c46 3 47 4 47 37
0 33 -1 34 -47 37 l-48 3 -5 102 -5 102 -47 -27z"/>
<path d="M1749 2227 c-76 -22 -145 -82 -175 -152 -22 -53 -29 -176 -15 -247
34 -161 190 -252 352 -204 128 37 190 123 197 276 6 116 -14 186 -71 247 -23
25 -61 54 -84 65 -55 24 -147 31 -204 15z m178 -105 c51 -36 78 -103 78 -197
0 -126 -48 -204 -138 -225 -45 -10 -101 2 -136 28 -112 83 -99 345 20 406 47
23 135 17 176 -12z"/>
<path d="M2658 2227 c-92 -26 -161 -95 -189 -189 -16 -55 -13 -192 7 -250 24
-72 94 -141 165 -162 112 -34 224 -12 294 58 36 37 75 110 63 121 -1 1 -25 5
-51 6 -46 4 -48 3 -70 -35 -29 -52 -75 -78 -136 -78 -81 0 -149 52 -171 130
-21 77 -36 72 215 72 l225 0 0 23 c0 45 -22 142 -40 178 -22 43 -80 96 -126
115 -49 21 -133 25 -186 11z m162 -100 c38 -25 65 -66 75 -114 l7 -33 -166 0
-166 0 0 29 c0 36 36 89 79 118 47 32 125 32 171 0z"/>
<path d="M3617 2226 c-70 -19 -125 -63 -161 -126 -27 -48 -31 -66 -34 -151 -6
-133 13 -195 77 -259 105 -105 275 -107 389 -5 67 60 87 116 86 245 0 109 -22
175 -77 228 -68 66 -187 95 -280 68z m152 -91 c39 -20 78 -68 92 -114 16 -54
7 -188 -15 -234 -67 -138 -266 -114 -311 37 -39 130 2 274 89 312 41 18 110
18 145 -1z"/>
</g>
</svg>
