<?xml version="1.0" standalone="no"?>
<!DOCTYPE svg PUBLIC "-//W3C//DTD SVG 20010904//EN"
 "http://www.w3.org/TR/2001/REC-SVG-20010904/DTD/svg10.dtd">
<svg version="1.0" xmlns="http://www.w3.org/2000/svg"
 width="500.000000pt" height="268.000000pt" viewBox="0 0 500.000000 268.000000"
 preserveAspectRatio="xMidYMid meet">

<g transform="translate(0.000000,268.000000) scale(0.100000,-0.100000)"
fill="#000000" stroke="none">
<path d="M277 2670 c-137 -24 -241 -128 -267 -271 -6 -31 -9 -162 -8 -295 l3
-239 2360 0 c1952 0 2367 2 2400 13 96 33 184 119 211 207 10 34 14 118 14
318 l1 272 -2333 1 c-1283 1 -2354 -2 -2381 -6z m195 -230 c40 -11 78 -51 78
-81 0 -28 -56 -26 -79 3 -21 26 -74 29 -98 6 -23 -24 -10 -35 69 -58 90 -27
118 -54 118 -112 -1 -75 -43 -108 -139 -108 -55 0 -65 3 -96 33 -19 17 -37 44
-41 60 -6 26 -4 27 30 27 26 0 38 -6 47 -22 16 -30 28 -38 62 -38 38 0 67 17
67 39 0 26 -16 36 -84 56 -65 18 -116 60 -116 95 0 32 25 74 52 87 51 25 76
28 130 13z m855 -9 c26 -12 48 -32 58 -51 19 -37 19 -38 -21 -46 -25 -5 -33
-1 -47 20 -24 36 -84 37 -118 0 -20 -22 -24 -36 -24 -89 0 -54 4 -68 25 -90
35 -38 87 -32 115 12 16 27 25 32 45 27 38 -8 43 -19 25 -53 -52 -101 -219
-93 -269 12 -9 20 -16 60 -16 94 0 78 30 130 90 161 54 27 82 27 137 3z m-365
4 c3 -3 3 -17 0 -30 -4 -24 -7 -25 -93 -25 l-89 0 0 -37 0 -38 86 3 85 4 -3
-34 -3 -33 -83 0 -82 0 0 -47 0 -48 95 0 95 0 0 -30 0 -30 -135 0 -135 0 0
175 0 175 128 0 c71 0 131 -2 134 -5z m658 -122 c0 -143 8 -163 66 -163 54 0
64 25 64 167 l0 123 36 0 35 0 -3 -146 -3 -146 -33 -29 c-28 -25 -40 -29 -95
-29 -80 0 -121 24 -136 77 -6 21 -11 91 -11 156 l0 117 40 0 40 0 0 -127z
m616 94 c34 -39 33 -96 -2 -131 -15 -14 -33 -26 -40 -26 -18 0 -18 -16 0 -23
13 -5 96 -120 96 -133 0 -2 -19 -4 -42 -4 -41 0 -44 2 -82 60 -41 64 -69 90
-98 90 -16 0 -18 -10 -18 -75 l0 -75 -35 0 -35 0 0 176 0 176 116 -4 c113 -3
116 -4 140 -31z m434 3 l0 -30 -95 0 -95 0 0 -37 0 -38 87 0 88 0 -1 -30 0
-30 -85 -1 -84 -2 -3 -46 -3 -46 102 0 c88 0 100 -2 95 -16 -3 -9 -6 -22 -6
-30 0 -11 -24 -14 -130 -14 l-130 0 0 175 0 175 130 0 130 0 0 -30z m367 10
c48 -29 67 -73 67 -155 1 -132 -56 -179 -209 -173 l-80 3 -3 160 c-1 87 0 165
2 172 4 9 32 13 98 13 75 0 99 -4 125 -20z m672 -6 c38 -31 41 -78 10 -118
-11 -14 -16 -26 -10 -26 6 0 19 -10 31 -22 30 -32 26 -81 -9 -120 l-29 -33
-116 -3 -116 -4 0 176 0 176 104 0 c98 0 106 -2 135 -26z m278 -39 c21 -35 40
-65 43 -65 3 1 21 29 40 63 34 59 37 62 78 65 23 2 42 1 42 -1 0 -2 -29 -48
-65 -103 -65 -99 -65 -99 -65 -171 l0 -73 -35 0 -35 0 0 75 c0 75 0 76 -60
170 -33 52 -60 97 -60 100 0 3 18 5 40 5 38 0 41 -2 77 -65z"/>
<path d="M2050 2337 l0 -44 58 5 c63 5 82 15 82 43 0 26 -30 39 -89 39 l-51 0
0 -43z"/>
<path d="M2890 2264 l0 -117 52 5 c71 7 88 30 88 115 0 83 -25 113 -95 113
l-45 0 0 -116z"/>
<path d="M3540 2340 l0 -40 46 0 c57 0 84 14 84 44 0 29 -16 36 -81 36 l-49 0
0 -40z"/>
<path d="M3540 2195 l0 -45 51 0 c65 0 89 13 89 49 0 35 -14 41 -86 41 l-54 0
0 -45z"/>
<path d="M4464 1806 c-103 -26 -186 -94 -227 -185 -14 -32 -22 -74 -25 -138
l-4 -93 -38 0 c-95 0 -125 -105 -43 -148 32 -18 789 -16 823 1 69 35 57 126
-20 147 l-40 11 0 78 c0 102 -20 159 -81 225 -84 92 -223 133 -345 102z m171
-144 c39 -19 83 -60 101 -94 8 -16 14 -57 14 -103 l0 -75 -199 0 -198 0 -6 57
c-8 77 -1 105 40 153 71 82 161 105 248 62z"/>
<path d="M1759 1626 c-13 -6 -28 -23 -33 -38 -23 -66 58 -113 109 -62 47 47
-16 130 -76 100z"/>
<path d="M2228 1604 l-48 -24 0 -70 c0 -39 -2 -70 -4 -70 -2 0 -21 7 -42 16
-87 36 -188 -18 -214 -116 -26 -95 -12 -220 32 -283 40 -56 139 -78 192 -44
31 21 36 21 36 2 0 -13 11 -15 58 -13 l57 3 3 313 c2 246 0 312 -10 312 -7 -1
-34 -12 -60 -26z m-78 -259 l30 -16 0 -98 0 -98 -35 -18 c-67 -37 -125 17
-125 117 0 110 51 154 130 113z"/>
<path d="M2504 1605 c-84 -32 -133 -116 -115 -198 19 -81 45 -101 192 -142
108 -31 129 -45 129 -91 0 -50 -32 -67 -118 -62 -65 3 -77 8 -138 52 -9 7 -25
-1 -53 -27 l-42 -37 28 -26 c51 -48 103 -67 188 -72 94 -5 152 8 196 45 40 34
59 79 59 139 0 100 -48 144 -203 187 -127 36 -157 72 -99 117 37 30 115 24
170 -13 l39 -26 38 39 c45 46 41 56 -39 97 -63 32 -170 40 -232 18z"/>
<path d="M3016 1605 c-81 -29 -126 -86 -126 -160 0 -78 54 -142 139 -165 20
-5 62 -16 94 -25 65 -18 97 -44 97 -79 0 -79 -169 -91 -252 -19 -15 14 -21 12
-58 -17 -22 -17 -40 -35 -40 -40 0 -17 76 -70 123 -86 67 -22 198 -16 252 12
76 39 111 130 84 216 -20 62 -75 100 -185 127 -110 28 -134 42 -134 81 0 67
120 83 195 25 l37 -28 42 42 41 41 -30 25 c-71 58 -194 80 -279 50z"/>
<path d="M297 1308 l2 -303 55 -3 55 -3 3 113 3 113 55 3 c30 1 60 -1 66 -5 6
-5 34 -56 62 -115 l51 -108 65 0 c36 0 66 2 66 5 0 3 -25 55 -55 115 -30 60
-55 113 -55 117 0 5 13 14 30 21 51 23 74 67 79 149 3 64 0 78 -23 116 -19 34
-37 49 -75 66 -44 19 -68 21 -218 21 l-168 0 2 -302z m327 181 c47 -22 56 -88
18 -131 -13 -15 -33 -18 -124 -18 l-108 0 0 80 0 80 95 0 c52 0 105 -5 119
-11z"/>
<path d="M3430 1310 l0 -300 160 0 160 0 -30 53 -29 52 -71 3 -70 3 0 244 0
245 -60 0 -60 0 0 -300z"/>
<path d="M965 1466 c-5 -2 -22 -7 -37 -10 -26 -6 -28 -10 -28 -56 l0 -50 27
11 c40 15 119 15 137 -1 9 -7 16 -26 16 -42 0 -26 -3 -28 -22 -22 -40 12 -127
6 -165 -13 -99 -48 -111 -190 -22 -255 56 -41 110 -42 202 -3 13 5 17 3 15 -6
-2 -10 12 -15 55 -17 l58 -3 -3 185 c-3 205 -8 219 -77 259 -28 17 -132 32
-156 23z m106 -262 c5 -3 9 -23 9 -44 0 -34 -4 -42 -30 -55 -45 -23 -85 -19
-109 11 -27 35 -26 49 5 81 22 22 31 25 71 19 24 -3 49 -8 54 -12z"/>
<path d="M1427 1451 c-29 -15 -37 -16 -37 -5 0 10 -15 14 -55 14 l-54 0 -3
-310 c-2 -171 -2 -310 -1 -310 2 0 27 12 58 27 l55 27 0 68 0 68 25 -16 c32
-21 112 -21 153 0 73 38 111 152 91 274 -16 101 -52 153 -120 172 -49 14 -70
12 -112 -9z m96 -122 c10 -15 22 -47 24 -72 12 -102 -23 -163 -86 -153 -61 10
-71 27 -71 132 0 85 2 94 23 109 33 23 86 16 110 -16z"/>
<path d="M1730 1230 l0 -230 55 0 55 0 0 230 0 230 -55 0 -55 0 0 -230z"/>
<path d="M4105 1155 c-40 -39 -32 -96 16 -120 23 -12 96 -15 422 -15 378 0
395 1 420 20 44 35 43 93 -2 127 -12 9 -119 12 -424 13 l-408 0 -24 -25z"/>
<path d="M3832 1060 c0 -19 2 -27 5 -17 2 9 2 25 0 35 -3 9 -5 1 -5 -18z"/>
<path d="M3855 1050 c3 -5 8 -10 11 -10 2 0 4 5 4 10 0 6 -5 10 -11 10 -5 0
-7 -4 -4 -10z"/>
<path d="M4105 945 c-40 -39 -32 -96 16 -120 23 -12 96 -15 423 -15 l395 0 25
23 c41 36 43 71 8 107 l-30 30 -407 0 -406 0 -24 -25z"/>
<path d="M215 498 c-23 -13 -35 -28 -35 -45 0 -21 27 -14 33 8 4 16 12 20 39
17 27 -2 34 -7 36 -30 3 -22 -8 -38 -57 -86 -34 -32 -61 -64 -61 -70 0 -8 24
-12 75 -12 53 0 75 4 75 13 0 8 -15 11 -50 9 -27 -2 -50 -1 -50 4 0 4 23 31
50 60 58 61 64 92 24 123 -30 24 -50 26 -79 9z"/>
<path d="M590 482 c-26 -27 -30 -38 -30 -86 0 -72 12 -101 48 -114 37 -13 72
3 90 42 29 59 -31 121 -89 92 -34 -17 -34 -17 -15 29 12 27 21 35 41 35 14 0
28 -7 31 -15 4 -8 12 -15 20 -15 33 0 1 46 -38 55 -22 6 -33 1 -58 -23z m82
-107 c16 -35 -3 -75 -35 -75 -30 0 -47 18 -47 50 0 52 61 71 82 25z"/>
<path d="M868 504 c-5 -4 -8 -56 -8 -116 l0 -108 63 0 c75 0 107 18 107 60 0
16 -7 36 -16 45 -13 12 -14 19 -5 28 15 15 14 49 -1 70 -14 18 -127 35 -140
21z m110 -33 c8 -4 12 -19 10 -32 -3 -21 -9 -24 -50 -27 l-48 -3 0 35 c0 35 1
36 38 36 20 0 43 -4 50 -9z m20 -123 c4 -32 -24 -51 -71 -46 -29 3 -32 6 -35
41 l-3 38 53 -3 c49 -3 53 -5 56 -30z"/>
<path d="M1090 490 c0 -11 5 -20 10 -20 6 0 10 9 10 20 0 11 -4 20 -10 20 -5
0 -10 -9 -10 -20z"/>
<path d="M1406 489 c-28 -22 -34 -60 -12 -78 8 -6 38 -19 67 -29 59 -19 75
-45 43 -69 -28 -20 -62 -16 -90 12 -44 44 -62 27 -21 -20 18 -22 32 -27 70
-27 55 -1 87 21 87 62 0 35 -23 55 -85 72 -75 21 -74 67 1 68 22 0 36 -7 47
-22 17 -27 32 -19 22 12 -13 41 -86 53 -129 19z"/>
<path d="M2540 497 c-17 -8 -26 -22 -28 -43 -4 -38 14 -54 82 -74 56 -17 72
-44 40 -67 -29 -21 -70 -16 -92 12 -33 42 -60 24 -28 -18 32 -42 134 -39 157
4 23 43 -21 99 -78 99 -10 0 -29 7 -41 16 -18 12 -20 19 -12 35 15 27 75 26
92 -1 15 -23 38 -27 38 -6 0 22 -49 56 -79 56 -14 0 -37 -6 -51 -13z"/>
<path d="M2755 485 c-44 -43 -26 -78 49 -100 69 -20 86 -38 61 -65 -25 -28
-71 -26 -99 5 -28 30 -46 32 -39 4 19 -72 173 -67 173 7 0 41 -12 54 -65 70
-63 18 -84 37 -65 59 19 22 77 19 92 -5 13 -21 38 -27 38 -10 0 25 -50 60 -85
60 -25 0 -44 -8 -60 -25z"/>
<path d="M2967 503 c-4 -3 -7 -55 -7 -115 l0 -108 70 0 c49 0 70 4 70 13 0 8
-17 12 -52 12 l-53 0 -3 103 c-2 94 -8 113 -25 95z"/>
<path d="M3250 508 c-1 -2 -2 -54 -3 -116 l-2 -112 83 0 c59 0 82 4 82 13 0 8
-20 12 -67 12 l-68 0 -3 38 -3 37 65 0 c52 0 66 3 66 15 0 12 -14 15 -66 15
l-65 0 3 33 3 32 68 3 c97 4 85 26 -16 30 -42 2 -77 2 -77 0z"/>
<path d="M4424 496 c-8 -22 3 -33 18 -18 9 9 9 15 0 24 -9 9 -13 7 -18 -6z"/>
<path d="M383 448 c-10 -56 -2 -81 19 -60 7 7 25 12 40 12 37 0 57 -38 40 -75
-15 -33 -71 -36 -79 -5 -6 22 -33 28 -33 7 0 -23 39 -50 71 -50 42 0 73 33 73
79 0 48 -34 78 -80 71 -30 -5 -32 -4 -25 21 6 24 13 27 54 30 68 4 58 22 -12
22 l-59 0 -9 -52z"/>
<path d="M1186 485 c-4 -11 -12 -28 -18 -39 -7 -13 -7 -21 1 -25 5 -4 11 -36
13 -71 3 -64 3 -65 33 -68 l30 -2 -22 16 c-19 14 -23 26 -23 70 0 41 4 54 15
54 19 0 20 16 1 23 -8 3 -16 18 -18 34 -4 25 -5 26 -12 8z"/>
<path d="M1623 493 c-7 -3 -13 -15 -13 -28 0 -13 -6 -26 -12 -28 -10 -4 -10
-7 -1 -14 7 -5 13 -38 15 -73 3 -63 4 -65 31 -68 15 -2 27 1 27 7 0 6 -7 11
-15 11 -23 0 -21 108 3 126 16 12 16 13 0 14 -11 0 -18 10 -20 28 -2 18 -8 27
-15 25z"/>
<path d="M4333 489 c-7 -7 -13 -21 -13 -30 0 -10 -6 -20 -12 -22 -10 -4 -10
-7 -1 -14 7 -5 13 -38 15 -73 3 -63 4 -65 31 -68 29 -4 37 12 12 22 -11 4 -15
21 -15 61 0 42 3 55 15 55 8 0 15 5 15 10 0 6 -6 10 -14 10 -9 0 -16 12 -18
31 -2 24 -5 28 -15 18z"/>
<path d="M1755 440 c-4 -6 -15 -8 -26 -5 -18 6 -19 1 -19 -74 0 -58 4 -81 13
-81 8 0 11 13 9 43 -5 59 12 101 39 94 15 -4 19 -1 17 10 -4 20 -24 28 -33 13z"/>
<path d="M1863 440 c-64 -26 -54 -155 12 -161 63 -5 95 21 95 80 0 64 -52 104
-107 81z m65 -32 c7 -7 12 -28 12 -48 0 -41 -14 -60 -45 -60 -31 0 -45 19 -45
60 0 41 14 60 45 60 12 0 26 -5 33 -12z"/>
<path d="M2070 440 c-8 -5 -23 -7 -32 -4 -16 5 -18 -3 -18 -75 0 -65 3 -81 15
-81 12 0 15 13 15 58 0 60 11 82 42 82 25 0 38 -31 38 -89 0 -28 5 -51 10 -51
6 0 10 30 10 69 0 61 -3 72 -22 85 -26 18 -37 19 -58 6z"/>
<path d="M2243 440 c-46 -19 -57 -89 -21 -135 18 -23 26 -26 60 -22 44 6 50
-9 17 -38 -19 -19 -21 -19 -55 0 -41 22 -54 15 -25 -14 25 -25 68 -27 99 -5
20 14 22 23 22 114 0 95 -1 98 -22 97 -13 0 -30 2 -38 6 -8 3 -25 2 -37 -3z
m67 -39 c15 -29 12 -62 -7 -83 -34 -38 -73 -15 -73 42 0 20 5 41 12 48 18 18
56 14 68 -7z"/>
<path d="M3520 440 c-8 -5 -23 -7 -32 -4 -16 5 -18 -3 -18 -75 0 -47 4 -81 10
-81 6 0 10 24 10 53 0 63 16 90 51 85 22 -3 24 -7 27 -70 2 -52 6 -68 17 -68
12 0 15 15 15 69 0 61 -3 72 -22 85 -26 18 -37 19 -58 6z"/>
<path d="M3693 440 c-44 -18 -59 -98 -25 -139 31 -40 122 -21 122 26 0 20 -18
16 -30 -7 -12 -22 -49 -27 -68 -8 -16 16 -16 80 0 96 17 17 57 15 64 -3 4 -8
12 -15 20 -15 26 0 12 30 -23 49 -25 13 -30 13 -60 1z"/>
<path d="M3875 440 c-4 -6 -15 -8 -26 -5 -18 6 -19 1 -19 -74 0 -65 3 -81 15
-81 12 0 15 13 15 59 0 58 16 91 39 77 5 -4 13 -1 17 5 3 6 0 15 -7 20 -18 11
-26 11 -34 -1z"/>
<path d="M4180 440 c-8 -5 -23 -7 -32 -4 -16 5 -18 -5 -18 -110 0 -71 4 -116
10 -116 6 0 10 18 10 41 0 35 2 40 18 34 68 -29 125 51 88 124 -9 17 -21 31
-25 31 -5 0 -15 2 -23 5 -7 3 -20 0 -28 -5z m58 -68 c4 -42 -13 -72 -43 -72
-45 0 -61 74 -24 111 18 18 23 19 42 6 13 -8 23 -27 25 -45z"/>
<path d="M4550 443 c-36 -13 -50 -36 -50 -83 0 -67 36 -94 101 -77 66 17 63
133 -4 157 -16 5 -30 10 -31 9 -1 0 -8 -3 -16 -6z m64 -55 c14 -41 -3 -82 -36
-86 -27 -3 -58 27 -58 58 0 58 76 80 94 28z"/>
<path d="M4750 440 c-8 -5 -23 -7 -32 -4 -16 5 -18 -3 -18 -75 0 -47 4 -81 10
-81 6 0 10 24 10 53 0 63 16 90 51 85 22 -3 24 -7 27 -70 2 -52 6 -68 17 -68
12 0 15 15 15 69 0 61 -3 72 -22 85 -26 18 -37 19 -58 6z"/>
<path d="M1090 360 c0 -47 4 -80 10 -80 6 0 10 33 10 80 0 47 -4 80 -10 80 -6
0 -10 -33 -10 -80z"/>
<path d="M3940 436 c0 -2 14 -41 31 -85 25 -66 29 -84 19 -96 -7 -8 -19 -15
-26 -15 -8 0 -14 -7 -14 -15 0 -18 33 -20 48 -2 6 6 28 58 50 115 31 80 37
102 25 100 -9 -2 -26 -29 -38 -62 -24 -65 -25 -64 -49 12 -10 30 -24 52 -32
52 -8 0 -14 -2 -14 -4z"/>
<path d="M4420 360 c0 -64 3 -80 15 -80 12 0 15 16 15 80 0 64 -3 80 -15 80
-12 0 -15 -16 -15 -80z"/>
</g>
</svg>
