<?xml version="1.0" standalone="no"?>
<!DOCTYPE svg PUBLIC "-//W3C//DTD SVG 20010904//EN"
 "http://www.w3.org/TR/2001/REC-SVG-20010904/DTD/svg10.dtd">
<svg version="1.0" xmlns="http://www.w3.org/2000/svg"
 width="2560.000000pt" height="610.000000pt" viewBox="0 0 2560.000000 610.000000"
 preserveAspectRatio="xMidYMid meet">

<g transform="translate(0.000000,610.000000) scale(0.100000,-0.100000)"
fill="#000000" stroke="none">
<path d="M24185 5133 c-72 -25 -164 -118 -194 -198 -30 -79 -26 -197 8 -264
86 -167 277 -239 440 -166 82 37 164 124 186 197 48 164 -19 333 -167 413 -45
24 -66 29 -138 32 -60 2 -100 -2 -135 -14z m250 -56 c106 -54 160 -144 159
-267 -1 -120 -53 -202 -166 -262 -61 -32 -185 -32 -245 0 -63 33 -106 74 -137
132 -85 157 -6 350 171 416 57 21 157 13 218 -19z"/>
<path d="M24170 4820 l0 -190 35 0 35 0 0 80 0 80 38 0 c37 0 37 -1 74 -80
l36 -80 41 0 41 0 -40 80 c-44 88 -47 100 -25 100 30 0 65 50 65 92 0 86 -40
108 -195 108 l-105 0 0 -190z m213 119 c22 -28 22 -54 -3 -79 -16 -16 -33 -20
-80 -20 l-60 0 0 66 0 67 63 -7 c46 -4 67 -11 80 -27z"/>
<path d="M2110 5105 c-393 -79 -718 -395 -827 -802 -24 -87 -27 -117 -27 -263
0 -151 3 -173 27 -253 77 -249 248 -451 485 -571 56 -28 413 -176 1252 -518
283 -115 519 -214 525 -219 5 -5 -470 -9 -1233 -9 l-1241 0 -6 -32 c-6 -37
-115 -924 -115 -939 0 -13 3152 -12 3260 1 271 34 499 141 676 319 255 256
384 575 371 921 -9 270 -91 418 -309 563 -140 93 -291 162 -1548 700 l-705
302 1312 3 1313 2 5 23 c5 23 95 757 95 776 0 17 -3224 13 -3310 -4z"/>
<path d="M5870 5111 c0 -5 -99 -819 -220 -1810 -121 -990 -220 -1803 -220
-1806 0 -8 1760 -6 1761 3 0 4 35 288 77 632 l77 625 278 5 277 5 -5 -30 c-3
-16 -37 -289 -75 -605 -38 -316 -72 -590 -75 -607 l-6 -33 880 0 881 0 4 22
c3 13 102 817 221 1788 118 971 217 1777 220 1793 l5 27 -880 0 c-484 0 -880
-1 -881 -2 0 -2 -35 -282 -78 -623 l-77 -620 -277 -3 -278 -2 6 32 c7 44 145
1186 145 1204 0 12 -135 14 -880 14 -505 0 -880 -4 -880 -9z"/>
<path d="M10430 5112 c0 -4 -49 -399 -109 -877 -61 -479 -115 -928 -122 -1000
-19 -198 -16 -528 5 -650 59 -328 256 -659 520 -874 208 -169 456 -289 706
-341 291 -60 794 -48 1130 26 230 51 467 144 645 253 381 233 689 568 892 968
143 282 166 403 308 1578 58 479 107 882 110 898 l5 27 -912 -2 -912 -3 -153
-1240 c-84 -682 -153 -1246 -153 -1252 0 -10 -54 -13 -235 -13 l-235 0 0 25
c0 25 295 2403 305 2458 l5 27 -900 0 c-495 0 -900 -4 -900 -8z"/>
<path d="M14996 5088 c-8 -45 -96 -752 -96 -772 0 -15 114 -16 1265 -16 l1266
0 -6 -32 c-5 -32 -55 -395 -55 -404 0 -2 -568 -4 -1263 -4 l-1263 0 -143
-1167 c-78 -643 -145 -1176 -147 -1185 -5 -17 36 -18 765 -18 424 0 771 1 771
3 1 25 150 1191 153 1193 1 2 651 -388 1442 -866 792 -477 1441 -865 1442
-862 2 7 63 514 63 526 0 3 880 6 1955 6 1075 0 1955 3 1955 8 0 4 25 209 55
455 30 246 55 459 55 472 l0 25 -1060 0 -1060 0 0 23 c0 12 14 119 30 237 17
118 30 216 30 217 0 2 478 3 1063 3 l1063 0 53 438 c29 240 55 447 58 460 l5
22 -1056 0 -1056 0 0 23 c1 12 13 110 28 217 l27 195 1052 3 1053 2 4 23 c6
27 96 777 96 795 0 9 -397 12 -1953 12 l-1952 0 -164 -1342 c-91 -739 -168
-1347 -172 -1351 -3 -5 -304 143 -669 329 l-662 337 134 47 c337 118 524 235
676 424 265 329 333 744 176 1059 -114 228 -300 396 -519 469 l-70 23 -1681 3
-1682 2 -6 -32z"/>
</g>
</svg>
