<?xml version="1.0" standalone="no"?>
<!DOCTYPE svg PUBLIC "-//W3C//DTD SVG 20010904//EN"
 "http://www.w3.org/TR/2001/REC-SVG-20010904/DTD/svg10.dtd">
<svg version="1.0" xmlns="http://www.w3.org/2000/svg"
 width="200.000000pt" height="126.000000pt" viewBox="0 0 200.000000 126.000000"
 preserveAspectRatio="xMidYMid meet">

<g transform="translate(0.000000,126.000000) scale(0.100000,-0.100000)"
fill="#000000" stroke="none">
<path d="M72 1198 c-17 -17 -17 -1079 0 -1096 17 -17 1839 -17 1856 0 9 9 12
85 12 280 l0 268 -935 0 -935 0 0 268 c0 195 3 271 12 280 7 7 10 12 7 12 -3
0 -10 -5 -17 -12z m638 -733 c8 -10 10 -19 4 -25 -5 -5 -8 -28 -6 -50 l4 -40
30 37 c36 45 46 53 76 53 29 0 28 -21 -4 -51 -14 -13 -39 -48 -56 -79 -56
-100 -76 -108 -124 -50 -13 15 -37 30 -53 33 -17 4 -37 17 -46 30 -14 22 -18
23 -50 13 -23 -7 -35 -17 -35 -28 0 -13 -8 -18 -25 -18 -24 0 -25 2 -25 65 l0
65 38 0 c42 0 82 -23 83 -48 0 -13 3 -11 9 5 12 29 44 45 83 41 21 -2 33 -9
35 -20 3 -15 -4 -18 -33 -18 -32 0 -36 -3 -33 -22 2 -18 12 -24 41 -29 l37 -6
0 49 c0 31 4 48 13 49 10 0 10 2 0 6 -14 5 -18 35 -6 46 11 12 30 8 43 -8z
m268 -64 c3 -9 -2 -11 -17 -6 -29 9 -51 -11 -51 -45 0 -38 25 -58 52 -41 17
11 19 10 16 -6 -5 -28 -53 -29 -72 -1 -34 48 -7 122 42 116 14 -2 27 -9 30
-17z m92 9 c0 -5 -11 -10 -25 -10 -18 0 -25 -5 -25 -20 0 -15 7 -20 25 -20 14
0 25 -4 25 -10 0 -5 -11 -10 -25 -10 -18 0 -25 -5 -25 -20 0 -15 7 -20 25 -20
14 0 25 -4 25 -10 0 -5 -16 -10 -35 -10 l-35 0 0 70 0 70 35 0 c19 0 35 -4 35
-10z m98 -2 c15 -15 15 -51 0 -66 -9 -9 -9 -18 0 -37 15 -32 -1 -33 -22 0 -9
14 -21 25 -26 25 -6 0 -10 -11 -10 -25 0 -14 -4 -25 -10 -25 -6 0 -10 30 -10
70 l0 70 33 0 c18 0 38 -5 45 -12z m102 2 c0 -5 -7 -10 -15 -10 -12 0 -15 -13
-15 -60 0 -33 -4 -60 -10 -60 -6 0 -10 27 -10 60 0 47 -3 60 -15 60 -8 0 -15
5 -15 10 0 6 18 10 40 10 22 0 40 -4 40 -10z m40 -60 c0 -40 -4 -70 -10 -70
-6 0 -10 30 -10 70 0 40 4 70 10 70 6 0 10 -30 10 -70z m90 60 c0 -5 -11 -10
-25 -10 -18 0 -25 -5 -25 -20 0 -15 7 -20 25 -20 14 0 25 -4 25 -10 0 -5 -11
-10 -25 -10 -21 0 -25 -5 -25 -30 0 -16 -4 -30 -10 -30 -6 0 -10 30 -10 70 l0
70 35 0 c19 0 35 -4 35 -10z m40 -60 c0 -40 -4 -70 -10 -70 -6 0 -10 30 -10
70 0 40 4 70 10 70 6 0 10 -30 10 -70z m100 60 c0 -5 -11 -10 -25 -10 -18 0
-25 -5 -25 -20 0 -15 7 -20 25 -20 14 0 25 -4 25 -10 0 -5 -11 -10 -25 -10
-18 0 -25 -5 -25 -20 0 -15 7 -20 25 -20 14 0 25 -4 25 -10 0 -5 -16 -10 -35
-10 l-35 0 0 70 0 70 35 0 c19 0 35 -4 35 -10z m104 -12 c36 -51 8 -118 -50
-118 l-34 0 0 70 0 70 34 0 c25 0 39 -7 50 -22z"/>
<path d="M450 376 c0 -9 5 -16 10 -16 6 0 10 4 10 9 0 6 -4 13 -10 16 -5 3
-10 -1 -10 -9z"/>
<path d="M1110 375 c0 -22 4 -26 23 -23 14 2 22 10 22 23 0 13 -8 21 -22 23
-19 3 -23 -1 -23 -23z"/>
<path d="M1580 350 c0 -47 2 -51 21 -48 12 2 27 11 33 20 15 25 -4 72 -32 76
-20 3 -22 -1 -22 -48z"/>
<path d="M593 1093 c-17 -6 -16 -38 2 -73 l16 -30 -35 0 c-19 0 -37 -4 -40 -8
-6 -10 98 -215 112 -220 6 -2 18 11 28 29 l17 33 18 -36 c19 -37 39 -51 56
-40 15 11 163 303 163 322 0 10 -7 21 -16 24 -19 7 -303 7 -321 -1z m177 -113
c0 -20 -65 -140 -76 -140 -14 0 -86 134 -77 144 10 10 153 7 153 -4z"/>
<path d="M980 984 c0 -3 7 -31 16 -62 30 -106 62 -109 88 -8 19 79 19 76 2 76
-9 0 -19 -20 -27 -55 -7 -30 -15 -52 -20 -50 -4 3 -12 27 -19 55 -7 30 -17 50
-26 50 -8 0 -14 -3 -14 -6z"/>
<path d="M1120 975 c0 -8 9 -15 20 -15 18 0 20 -7 20 -60 0 -47 3 -60 15 -60
12 0 15 13 15 59 0 50 3 59 20 64 41 11 20 27 -35 27 -42 0 -55 -3 -55 -15z"/>
<path d="M1249 963 c-13 -34 -5 -103 13 -114 22 -14 68 -11 68 5 0 9 -12 16
-27 18 -17 2 -28 9 -28 18 0 9 11 16 28 18 37 4 34 22 -4 22 -38 0 -35 24 4
28 42 5 34 32 -8 32 -29 0 -37 -5 -46 -27z"/>
<path d="M1360 984 c0 -3 8 -19 17 -35 16 -27 16 -31 0 -64 -20 -43 -21 -45
-4 -45 8 0 19 12 26 27 l13 28 14 -28 c8 -15 21 -27 29 -27 20 0 19 9 -4 46
-19 31 -19 32 0 63 23 38 23 41 4 41 -8 0 -20 -10 -26 -22 l-12 -22 -15 22
c-13 20 -42 31 -42 16z"/>
</g>
</svg>
