<?xml version="1.0" standalone="no"?>
<!DOCTYPE svg PUBLIC "-//W3C//DTD SVG 20010904//EN"
 "http://www.w3.org/TR/2001/REC-SVG-20010904/DTD/svg10.dtd">
<svg version="1.0" xmlns="http://www.w3.org/2000/svg"
 width="3500.000000pt" height="538.000000pt" viewBox="0 0 3500.000000 538.000000"
 preserveAspectRatio="xMidYMid meet">

<g transform="translate(0.000000,538.000000) scale(0.100000,-0.100000)"
fill="#000000" stroke="none">
<path d="M0 2770 l0 -2610 210 0 210 0 2 2418 3 2417 3790 0 c3614 0 3794 -1
3879 -18 49 -10 125 -29 169 -43 380 -121 695 -425 831 -802 93 -261 93 -583
0 -844 -63 -176 -160 -327 -298 -464 -180 -180 -373 -285 -646 -350 -71 -17
-222 -19 -2735 -24 l-2660 -5 0 -640 0 -640 3323 -3 3322 -2 0 195 0 195
-3125 0 -3125 0 0 255 0 254 2458 4 c2245 3 2465 5 2551 20 377 67 657 206
909 451 243 236 400 530 469 881 27 137 25 494 -4 625 -78 350 -215 604 -457
846 -248 247 -527 394 -886 466 l-115 23 -4037 3 -4038 2 0 -2610z"/>
<path d="M10432 5367 c-47 -18 -97 -60 -115 -100 -16 -32 -17 -229 -17 -2496
0 -2045 2 -2467 14 -2494 17 -43 76 -93 123 -106 50 -14 556 -14 606 0 39 11
99 57 120 93 9 16 13 273 17 1061 5 943 7 1043 22 1070 20 37 52 67 98 91 33
18 76 19 835 22 488 2 849 -1 925 -7 230 -19 371 -71 464 -172 130 -140 256
-408 319 -674 36 -151 52 -248 87 -529 35 -276 62 -445 90 -565 52 -217 88
-291 167 -341 90 -57 113 -60 503 -60 389 0 385 -1 410 60 11 27 9 38 -23 112
-119 281 -160 445 -308 1208 -46 239 -174 763 -209 853 -32 85 -112 199 -185
264 -58 52 -63 59 -52 79 7 13 42 46 79 74 309 233 519 566 583 923 24 132 16
408 -14 542 -65 280 -171 475 -366 671 -205 206 -453 336 -773 407 -96 21
-106 21 -1732 23 -1249 2 -1643 0 -1668 -9z m2944 -692 c363 -63 581 -241 656
-536 28 -113 22 -339 -12 -439 -76 -223 -231 -368 -480 -448 -157 -51 -173
-52 -1210 -52 -1058 0 -1020 -2 -1083 58 -65 61 -62 27 -62 682 0 590 0 595
22 635 28 52 62 83 110 100 60 22 1934 21 2059 0z"/>
<path d="M20399 5370 c-45 -13 -79 -42 -107 -89 l-27 -46 0 -2465 0 -2465 22
-42 c13 -23 39 -54 60 -70 l36 -28 351 -3 c228 -2 364 1 387 7 46 14 104 77
118 128 17 58 15 4892 -1 4946 -16 54 -73 112 -123 126 -46 13 -674 14 -716 1z"/>
<path d="M34226 5365 c-59 -21 -88 -46 -113 -95 l-23 -44 0 -796 c0 -521 -4
-808 -11 -833 -5 -21 -21 -44 -36 -54 -30 -20 -30 -20 -185 85 -119 81 -342
190 -483 237 -792 260 -1724 4 -2310 -634 -110 -121 -233 -297 -304 -439 -67
-133 -133 -341 -162 -512 -20 -111 -17 -420 4 -557 124 -797 710 -1432 1514
-1639 319 -82 691 -87 1002 -14 296 69 576 204 829 397 45 34 70 40 102 23 22
-12 40 -61 40 -110 0 -93 53 -183 123 -209 18 -7 141 -11 330 -11 271 0 306 2
342 19 50 22 91 70 105 120 7 26 9 826 8 2493 l-3 2454 -28 42 c-15 23 -46 52
-70 64 -41 22 -52 23 -337 25 -236 2 -303 0 -334 -12z m-1221 -2120 c481 -78
848 -378 993 -810 43 -130 63 -265 63 -424 0 -226 -37 -402 -121 -578 -171
-360 -470 -590 -880 -679 -100 -22 -352 -30 -463 -15 -403 54 -761 311 -937
675 -89 184 -128 338 -137 547 -13 283 53 525 203 750 193 291 502 482 874
542 65 11 323 6 405 -8z"/>
<path d="M1030 2265 l0 -2105 210 0 210 0 1 768 c1 485 5 747 10 712 47 -292
103 -463 211 -653 262 -460 706 -748 1258 -817 57 -7 1110 -10 3277 -10 l3193
0 0 190 0 190 -3182 0 c-3523 0 -3267 -5 -3475 65 -206 69 -347 157 -509 319
-252 253 -377 550 -375 900 1 348 128 655 371 896 173 172 385 284 650 343
l95 21 2643 3 2642 3 0 640 0 640 -3615 0 -3615 0 0 -2105z m6840 1465 l0
-260 -2477 -3 c-2710 -4 -2504 1 -2737 -61 -527 -140 -949 -544 -1119 -1072
-32 -99 -45 -159 -76 -344 -5 -35 -9 323 -10 966 0 561 2 1024 6 1027 3 4
1448 7 3210 7 l3203 0 0 -260z"/>
<path d="M17235 4000 c-237 -24 -509 -84 -701 -155 -207 -76 -455 -214 -614
-342 -82 -66 -233 -215 -299 -297 -192 -235 -333 -530 -399 -835 -25 -117 -27
-143 -27 -361 0 -252 10 -328 69 -531 167 -574 605 -1034 1210 -1270 513 -200
1213 -244 1806 -113 759 167 1319 641 1549 1309 67 192 92 330 98 542 9 277
-28 491 -123 733 -285 718 -925 1181 -1805 1305 -134 19 -625 28 -764 15z
m650 -740 c271 -58 481 -165 668 -340 119 -112 206 -230 282 -385 151 -306
171 -597 63 -905 -68 -192 -168 -351 -313 -495 -188 -189 -403 -303 -686 -367
-93 -20 -129 -23 -334 -23 -201 1 -243 4 -335 24 -298 64 -531 189 -719 387
-329 343 -438 796 -295 1223 14 41 45 115 70 165 203 404 584 670 1055 736
115 16 431 4 544 -20z"/>
<path d="M23330 3999 c-359 -39 -681 -146 -930 -310 -128 -84 -333 -290 -418
-418 -66 -100 -161 -281 -181 -343 -16 -48 6 -99 58 -134 l36 -24 366 0 c337
0 371 2 411 19 65 28 114 72 177 158 94 128 167 190 295 248 152 70 327 97
626 97 406 0 595 -55 757 -219 83 -85 160 -202 168 -255 12 -84 -46 -197 -119
-232 -25 -12 -102 -19 -307 -31 -544 -30 -1005 -67 -1269 -101 -229 -29 -497
-76 -568 -100 -168 -56 -318 -151 -445 -283 -352 -365 -438 -874 -219 -1306
122 -242 340 -450 607 -581 387 -189 907 -234 1420 -124 277 60 554 181 730
319 72 57 97 71 124 71 22 0 91 -55 91 -74 0 -24 59 -132 86 -158 56 -52 93
-58 366 -58 186 0 257 3 281 14 43 17 93 76 106 123 7 26 11 419 11 1198 0
1219 -2 1256 -46 1428 -24 95 -81 233 -133 321 -231 392 -665 640 -1291 737
-108 17 -192 22 -420 24 -157 2 -323 -1 -370 -6z m1242 -2151 c22 -6 52 -27
70 -47 l31 -35 -6 -100 c-7 -126 -28 -206 -82 -321 -129 -275 -401 -462 -795
-546 -141 -31 -496 -34 -630 -7 -196 41 -369 116 -450 197 -58 58 -104 146
-119 225 -23 126 26 284 113 364 138 127 503 225 981 262 77 5 158 12 180 13
121 10 671 6 707 -5z"/>
<path d="M28415 3999 c-442 -45 -836 -188 -1145 -417 -112 -84 -171 -97 -191
-45 -5 13 -9 81 -9 150 0 141 -10 186 -51 236 -50 61 -86 67 -394 67 -307 0
-351 -7 -408 -64 -18 -18 -38 -51 -45 -73 -16 -53 -17 -3498 -2 -3555 14 -50
55 -97 105 -119 36 -17 71 -19 342 -19 189 0 312 4 330 11 35 13 79 54 101 94
15 27 18 120 23 980 l5 950 26 105 c135 545 508 885 1060 966 155 22 417 15
538 -15 134 -34 239 -90 328 -176 85 -81 132 -151 169 -253 58 -159 56 -108
62 -1372 l6 -1165 23 -37 c14 -23 42 -46 74 -62 l52 -26 300 0 c270 0 305 2
341 19 51 23 91 70 105 121 7 27 10 403 8 1197 -4 1281 -1 1226 -70 1442 -159
499 -580 898 -1094 1037 -89 24 -119 27 -299 30 -110 1 -240 -2 -290 -7z"/>
</g>
</svg>
